<?xml version="1.0" encoding="UTF-8" standalone="no"?>
<!-- Created with Inkscape (http://www.inkscape.org/) -->

<svg
   xmlns:osb="http://www.openswatchbook.org/uri/2009/osb"
   xmlns:dc="http://purl.org/dc/elements/1.1/"
   xmlns:cc="http://creativecommons.org/ns#"
   xmlns:rdf="http://www.w3.org/1999/02/22-rdf-syntax-ns#"
   xmlns:svg="http://www.w3.org/2000/svg"
   xmlns="http://www.w3.org/2000/svg"
   xmlns:xlink="http://www.w3.org/1999/xlink"
   xmlns:sodipodi="http://sodipodi.sourceforge.net/DTD/sodipodi-0.dtd"
   xmlns:inkscape="http://www.inkscape.org/namespaces/inkscape"
   width="64px"
   height="64px"
   id="svg3041"
   version="1.1"
   inkscape:version="0.48.4 r9939"
   sodipodi:docname="r7.TaskGen.svg">
  <defs
     id="defs3043">
    <linearGradient
       id="linearGradient6452"
       osb:paint="solid">
      <stop
         style="stop-color:#e5eaeb;stop-opacity:1;"
         offset="0"
         id="stop6454" />
    </linearGradient>
    <linearGradient
       inkscape:collect="always"
       id="linearGradient6394">
      <stop
         style="stop-color:#00eaff;stop-opacity:1;"
         offset="0"
         id="stop6396" />
      <stop
         style="stop-color:#00eaff;stop-opacity:0;"
         offset="1"
         id="stop6398" />
    </linearGradient>
    <marker
       inkscape:stockid="Arrow1Lstart"
       orient="auto"
       refY="0.0"
       refX="0.0"
       id="Arrow1Lstart"
       style="overflow:visible">
      <path
         id="path5722"
         d="M 0.0,0.0 L 5.0,-5.0 L -12.5,0.0 L 5.0,5.0 L 0.0,0.0 z "
         style="fill-rule:evenodd;stroke:#000000;stroke-width:1.0pt"
         transform="scale(0.8) translate(12.5,0)" />
    </marker>
    <linearGradient
       id="linearGradient5596"
       osb:paint="solid">
      <stop
         style="stop-color:#2ad4ff;stop-opacity:1;"
         offset="0"
         id="stop5598" />
    </linearGradient>
    <linearGradient
       id="linearGradient5531"
       osb:paint="solid">
      <stop
         style="stop-color:#00ffff;stop-opacity:1;"
         offset="0"
         id="stop5533" />
    </linearGradient>
    <linearGradient
       id="linearGradient5477"
       osb:paint="gradient">
      <stop
         style="stop-color:#00eaff;stop-opacity:1;"
         offset="0"
         id="stop5479" />
      <stop
         style="stop-color:#00eaff;stop-opacity:0;"
         offset="1"
         id="stop5481" />
    </linearGradient>
    <linearGradient
       id="linearGradient5433">
      <stop
         style="stop-color:#00eaff;stop-opacity:1;"
         offset="0"
         id="stop5435" />
      <stop
         style="stop-color:#00eaff;stop-opacity:0;"
         offset="1"
         id="stop5437" />
    </linearGradient>
    <linearGradient
       inkscape:collect="always"
       id="linearGradient5401">
      <stop
         style="stop-color:#ffffff;stop-opacity:1;"
         offset="0"
         id="stop5403" />
      <stop
         style="stop-color:#ffffff;stop-opacity:0;"
         offset="1"
         id="stop5405" />
    </linearGradient>
    <linearGradient
       inkscape:collect="always"
       id="linearGradient5270"
       osb:paint="gradient">
      <stop
         style="stop-color:#00e9ff;stop-opacity:1;"
         offset="0"
         id="stop5272" />
      <stop
         style="stop-color:#00e9ff;stop-opacity:0;"
         offset="1"
         id="stop5274" />
    </linearGradient>
    <linearGradient
       inkscape:collect="always"
       id="linearGradient5262"
       osb:paint="gradient">
      <stop
         style="stop-color:#00e9ff;stop-opacity:1;"
         offset="0"
         id="stop5264" />
      <stop
         style="stop-color:#00e9ff;stop-opacity:0;"
         offset="1"
         id="stop5266" />
    </linearGradient>
    <linearGradient
       id="linearGradient5256"
       osb:paint="solid">
      <stop
         style="stop-color:#000000;stop-opacity:1;"
         offset="0"
         id="stop5258" />
    </linearGradient>
    <linearGradient
       id="linearGradient5239"
       osb:paint="solid">
      <stop
         style="stop-color:#000000;stop-opacity:1;"
         offset="0"
         id="stop5241" />
    </linearGradient>
    <linearGradient
       id="linearGradient5225"
       osb:paint="solid">
      <stop
         style="stop-color:#d12eaf;stop-opacity:1;"
         offset="0"
         id="stop5227" />
    </linearGradient>
    <linearGradient
       id="linearGradient5217">
      <stop
         style="stop-color:#ff9194;stop-opacity:1;"
         offset="0"
         id="stop5219" />
      <stop
         style="stop-color:#ffffff;stop-opacity:0;"
         offset="1"
         id="stop5221" />
    </linearGradient>
    <linearGradient
       id="linearGradient5209"
       osb:paint="solid">
      <stop
         style="stop-color:#ffffff;stop-opacity:1;"
         offset="0"
         id="stop5211" />
    </linearGradient>
    <radialGradient
       inkscape:collect="always"
       xlink:href="#linearGradient5401"
       id="radialGradient5413"
       cx="32.036255"
       cy="31.98735"
       fx="32.036255"
       fy="31.98735"
       r="32.023605"
       gradientTransform="matrix(1,0,0,0.99926297,0,0.02357573)"
       gradientUnits="userSpaceOnUse" />
    <linearGradient
       inkscape:collect="always"
       xlink:href="#linearGradient5477"
       id="linearGradient5485"
       x1="-0.18872742"
       y1="32.005209"
       x2="64.14923"
       y2="32.005209"
       gradientUnits="userSpaceOnUse" />
    <radialGradient
       inkscape:collect="always"
       xlink:href="#linearGradient6394"
       id="radialGradient6400"
       cx="32.012657"
       cy="31.987344"
       fx="32.012657"
       fy="31.987344"
       r="32.01265"
       gradientUnits="userSpaceOnUse" />
    <filter
       inkscape:collect="always"
       id="filter6410">
      <feGaussianBlur
         inkscape:collect="always"
         stdDeviation="0.96037949"
         id="feGaussianBlur6412" />
    </filter>
    <linearGradient
       inkscape:collect="always"
       xlink:href="#linearGradient6452"
       id="linearGradient6456"
       x1="0.029836949"
       y1="31.98735"
       x2="64.159863"
       y2="31.98735"
       gradientUnits="userSpaceOnUse" />
  </defs>
  <sodipodi:namedview
     id="base"
     pagecolor="#ffffff"
     bordercolor="#666666"
     borderopacity="1.0"
     inkscape:pageopacity="0.0"
     inkscape:pageshadow="2"
     inkscape:zoom="8"
     inkscape:cx="44.506917"
     inkscape:cy="28.376843"
     inkscape:current-layer="layer1"
     showgrid="true"
     inkscape:document-units="px"
     inkscape:grid-bbox="true"
     inkscape:window-width="1920"
     inkscape:window-height="929"
     inkscape:window-x="0"
     inkscape:window-y="26"
     inkscape:window-maximized="1" />
  <metadata
     id="metadata3046">
    <rdf:RDF>
      <cc:Work
         rdf:about="">
        <dc:format>image/svg+xml</dc:format>
        <dc:type
           rdf:resource="http://purl.org/dc/dcmitype/StillImage" />
        <dc:title></dc:title>
      </cc:Work>
    </rdf:RDF>
  </metadata>
  <g
     id="layer1"
     inkscape:label="Layer 1"
     inkscape:groupmode="layer">
    <path
       style="fill:#ffffff;"
       d="m 4.3636369,55.409091 7.6818171,1.136363 -2.0454541,6.181832 -5.954545,-2.227273 z"
       id="rect3089"
       inkscape:connector-curvature="0"
       sodipodi:nodetypes="ccccc" />
    <rect
       style="fill:#000080;fill-opacity:0.96891192000000004;stroke:url(#radialGradient6400);filter:url(#filter6410)"
       id="rect3268"
       width="64.025299"
       height="64.025299"
       x="7.0844781e-06"
       y="-0.025305346"
       ry="10.6282" />
    <path
       style="fill:url(#radialGradient5413);fill-opacity:1;stroke:url(#linearGradient6456);stroke-width:0.20000000000000001;stroke-miterlimit:4;stroke-opacity:1;stroke-dasharray:none;"
       inkscape:connector-curvature="0"
       d="m 31.450557,-0.01250256 c -0.134598,0.00396 -0.367443,0.030959 -0.452202,0.13381 L 12.166068,19.662136 c -0.316764,0.343218 -0.463161,0.607308 -0.03866,0.610897 l 38.128395,-0.08719 c 0.524007,-0.03706 0.526316,-0.01434 0.187028,-0.398488 L 31.738329,0.07468654 c -0.03865,-0.052119 -0.153083,-0.090054 -0.287772,-0.0871891 z M 35.105161,1.7433537 52.270138,19.812258 c 0.22993,0.241325 0.285975,0.255036 0.690644,0.08719 l 9.050054,-3.586389 c 0.592803,-0.23156 0.510664,-0.278983 0.115111,-0.510582 z m -8.014153,0.6599757 c -0.008,-0.014745 -0.147592,0.075551 -0.46043,0.2615266 L 1.7104484,16.860981 9.5087759,19.924354 c 0.4068209,0.116082 0.5283481,0.122296 0.7913131,-0.161903 L 26.745705,2.764478 c 0.231801,-0.2321191 0.353028,-0.346404 0.345303,-0.3611486 z m 7.884665,7.1976817 c 1.101548,4e-5 1.983427,0.328713 2.633006,0.9837879 0.649278,0.651809 1.015725,1.583073 1.107914,2.789414 0.09187,1.203114 -0.141185,2.134343 -0.690654,2.789414 -0.54975,0.651807 -1.373185,0.971313 -2.474743,0.971313 -1.105363,0 -1.983748,-0.319506 -2.633046,-0.971313 -0.649519,-0.655071 -1.015966,-1.5863 -1.107853,-2.789414 -0.09217,-1.206341 0.140883,-2.137605 0.690623,-2.789414 0.549479,-0.6550749 1.36936,-0.9837479 2.474753,-0.9837879 z m -7.23724,0.07472 c 1.004188,4e-5 1.757101,0.190196 2.244552,0.5728289 0.491185,0.382667 0.666717,0.909709 0.546727,1.59395 -0.06938,0.395659 -0.250402,0.764581 -0.546727,1.108314 -0.295764,0.340506 -0.869038,0.808253 -1.726559,1.382236 l -2.028705,1.357364 3.683346,0 -0.230211,1.369803 -6.100542,0 0.244589,-1.369803 3.467535,-2.34111 c 0.311006,-0.214027 0.552391,-0.418334 0.719399,-0.622638 0.167008,-0.204305 0.263454,-0.427022 0.302129,-0.647547 0.05974,-0.340504 -0.01516,-0.614345 -0.244549,-0.821878 -0.225944,-0.207531 -0.568818,-0.311299 -1.007205,-0.311337 -0.33724,3.8e-5 -0.71358,0.0728 -1.136671,0.199242 -0.42253,0.123253 -0.880907,0.301496 -1.381261,0.547923 l 0.273404,-1.593952 c 0.511534,-0.1394359 1.008003,-0.2399739 1.496373,-0.3113009 0.488908,-0.0746 0.967275,-0.112055 1.424376,-0.112095 z m 7.337953,1.2079389 c -0.464619,0 -0.779519,0.187446 -0.94962,0.560354 -0.170351,0.369717 -0.227631,1.009728 -0.158253,1.917721 0.07008,0.917757 0.218685,1.554023 0.445995,1.930196 0.227299,0.376173 0.571356,0.572823 1.035955,0.572823 0.460884,0 0.77976,-0.19665 0.94961,-0.572823 0.16984,-0.376173 0.228374,-1.012439 0.158283,-1.930196 -0.06938,-0.907993 -0.219267,-1.548004 -0.446045,-1.917721 -0.223313,-0.372908 -0.571346,-0.560354 -1.035925,-0.560354 z m -20.69009,1.008655 c 0.199483,0 0.339576,0.04323 0.402852,0.136996 0.125176,0.186494 -0.03311,0.550113 -0.460393,1.108275 -0.428625,0.560154 -0.920861,1.036386 -1.481972,1.419613 -0.562605,0.382189 -1.1849,0.669776 -1.856072,0.859258 -0.435299,0.122895 -0.73565,0.155131 -0.906413,0.08715 -0.1723277,-0.06902 -0.2120467,-0.241362 -0.1151108,-0.49811 -0.3242615,0.296796 -0.6629428,0.554258 -1.0215769,0.759637 -0.3586341,0.205379 -0.7239218,0.364817 -1.1078552,0.473203 -0.5714346,0.161311 -0.9155546,0.149554 -1.0071652,-0.03745 -0.091607,-0.18701 0.072681,-0.54545 0.4747738,-1.070936 0.3991553,-0.521621 0.8455094,-0.9641 1.3525032,-1.319992 0.5039415,-0.355051 1.0514575,-0.609922 1.6258611,-0.772069 0.383934,-0.108387 0.651823,-0.136917 0.805734,-0.07472 0.155354,0.06025 0.191441,0.209047 0.115092,0.435828 0.350836,-0.328396 0.721685,-0.605025 1.122294,-0.834314 0.399045,-0.230368 0.816395,-0.412555 1.251731,-0.535491 0.335595,-0.09472 0.606269,-0.136479 0.805717,-0.136959 z m 38.401815,0.298864 c 0.342521,0.248059 0.658997,0.504607 0.94961,0.747163 0.292792,0.242559 0.558635,0.476549 0.791316,0.709826 0.511156,0.512456 0.782953,0.910942 0.805745,1.195462 0.0249,0.286435 -0.197832,0.433117 -0.661879,0.435827 -0.268253,0 -0.581918,-0.06766 -0.935182,-0.186772 -0.351115,-0.119107 -0.908917,-0.363181 -1.683416,-0.747161 l -1.84168,-0.909074 1.884862,1.880383 -0.935242,0.01235 -3.107836,-3.113185 0.935232,-0.01235 3.150979,1.556612 c 0.284408,0.138713 0.528475,0.245189 0.733806,0.311298 0.205342,0.06611 0.382812,0.100498 0.532331,0.09962 0.230903,0 0.33999,-0.07512 0.345341,-0.211677 0.007,-0.13469 -0.09337,-0.311735 -0.316546,-0.535486 -0.171657,-0.172068 -0.400794,-0.368721 -0.690634,-0.572827 -0.287651,-0.204104 -0.636115,-0.415224 -1.035955,-0.647542 l 1.079148,-0.01235 z m -39.682306,0.834353 c -0.106771,0.0088 -0.250965,0.02789 -0.417291,0.07472 -0.335541,0.09472 -0.632747,0.22682 -0.892071,0.386018 -0.262295,0.160069 -0.475449,0.341979 -0.633062,0.547921 -0.159077,0.207887 -0.193672,0.34967 -0.100694,0.410958 0.09298,0.06129 0.314876,0.04407 0.64744,-0.04981 0.332566,-0.09388 0.628277,-0.22403 0.89205,-0.386053 0.2608,-0.161106 0.474011,-0.352461 0.633081,-0.560352 0.157617,-0.20594 0.192119,-0.33828 0.100735,-0.398488 -0.04723,-0.02949 -0.123472,-0.03348 -0.230188,-0.02471 z M 9.9835688,13.97195 c -0.085512,0.0056 -0.1963989,0.0243 -0.3309202,0.06225 -0.2690647,0.07599 -0.5051615,0.189358 -0.7193797,0.323767 -0.2173216,0.135286 -0.399849,0.287552 -0.5324054,0.460774 -0.1354932,0.177086 -0.1721871,0.293405 -0.100699,0.348675 0.072932,0.05336 0.251903,0.03786 0.5179928,-0.03746 0.2690597,-0.07595 0.5020741,-0.176051 0.7193957,-0.311337 0.2187443,-0.137203 0.396838,-0.296115 0.532312,-0.473204 0.132575,-0.173224 0.173698,-0.282847 0.100752,-0.336205 -0.03637,-0.02669 -0.101576,-0.043 -0.1870482,-0.03746 z M 63.43398,17.159848 c -0.07741,0.0048 -0.299055,0.04336 -0.487901,0.112054 l -9.391118,3.641438 c -0.33002,0.129667 -0.293176,0.256194 -0.170977,0.474803 L 64.059863,44.76004 63.901643,34.031715 C 63.888792,30.746434 63.563264,17.560633 63.43398,17.159848 z M 0.927287,17.80079 0.12983695,42.074667 7.2161897,27.511761 c 0.1859592,-0.187284 2.2721262,-5.779839 1.952043,-6.488756 z m 49.832086,3.580515 -38.991707,0.08719 c -0.557237,-0.0072 -0.534165,-0.0068 -0.258964,0.386015 l 19.797989,28.902815 c 0.334338,0.441051 0.298585,0.427179 0.647461,-0.02471 l 19.021065,-28.95263 c 0.166476,-0.229969 0.285703,-0.390877 -0.215844,-0.39849 z m 1.394817,0.657366 c -0.05298,0.0018 -0.302472,0.136026 -0.402938,0.316982 L 32.827983,51.565408 c -0.208946,0.307872 -0.110908,0.469349 0.392326,0.399813 l 30.401996,-3.623725 c 0.482159,-0.09528 0.467521,-0.244511 0.302179,-0.660014 L 52.423066,22.459032 C 52.267621,22.262921 52.218653,22.054008 52.15419,22.038671 z m -41.882878,0.376234 c -0.03729,0.0231 -0.07081,0.146006 -0.14389,0.323768 L 0.41550651,47.482236 C 0.25013175,48.007923 0.23142992,48.205411 0.84714374,48.30412 L 29.896669,51.940316 c 0.549308,0.07145 0.479057,-0.168 0.345302,-0.398484 L 10.472741,22.676391 C 10.348316,22.458334 10.308427,22.39171 10.271312,22.414905 z m 52.861805,0.323768 0.05753,1.033556 -0.978365,0.54792 0.230192,3.748296 0.978375,-0.834356 0.07199,1.021127 -0.992793,0.821882 -1.050323,0.585297 -0.287772,-4.769418 -0.460392,0.249053 0.01416,0.298866 c -0.215462,-0.02591 -0.425463,-0.01436 -0.633053,0.02471 -0.209398,0.04292 -0.406788,0.115523 -0.604309,0.224149 -0.293434,0.161388 -0.514699,0.350112 -0.661848,0.572827 -0.149066,0.223789 -0.216717,0.465831 -0.201446,0.722256 0.01556,0.264241 0.104257,0.414669 0.273374,0.460775 0.167339,0.04973 0.406838,-0.004 0.719389,-0.174339 l 0.446075,-0.249057 0.05753,0.971317 -0.460413,0.249051 c -0.278072,0.152902 -0.489468,0.331545 -0.618695,0.523016 -0.129067,0.194022 -0.186979,0.406614 -0.172671,0.647543 0.01325,0.222752 0.09066,0.361945 0.230181,0.410921 0.139538,0.04898 0.333916,0.0084 0.575523,-0.124529 0.178374,-0.09807 0.353444,-0.231402 0.53241,-0.386016 0.178966,-0.154614 0.358374,-0.330146 0.53233,-0.535488 l 0.05753,1.095844 c -0.213655,0.203148 -0.420694,0.375891 -0.633064,0.535486 -0.212369,0.159595 -0.425914,0.29703 -0.633083,0.410921 -0.558063,0.306914 -0.975162,0.420566 -1.266147,0.323772 -0.292711,-0.09313 -0.459589,-0.386776 -0.489187,-0.884124 -0.02018,-0.339354 0.0244,-0.656071 0.143876,-0.946411 0.119518,-0.287785 0.30748,-0.554098 0.561145,-0.784541 -0.295623,0.05826 -0.526105,0.0072 -0.690603,-0.161866 -0.166316,-0.165372 -0.250443,-0.435905 -0.273404,-0.821878 -0.03404,-0.575057 0.09468,-1.101742 0.402862,-1.581519 0.308293,-0.47719 0.78484,-0.888986 1.410032,-1.232803 0.220543,-0.1213 0.436477,-0.225739 0.661838,-0.298864 0.04608,-0.01552 0.09729,-0.02391 0.143896,-0.03746 l 0.01426,-0.01235 2.992726,-1.643756 z M 1.8255439,24.756016 c 0.146694,-0.0084 0.3004985,0.03308 0.474793,0.124526 0.3842325,0.201435 0.6653193,0.579164 0.8344942,1.133179 0.010643,0.03507 0.019277,0.07607 0.028544,0.112096 L 3.2209156,25.4658 5.2928144,26.549211 5.2064789,27.45824 4.530275,27.109563 4.2280938,30.37218 4.9331321,30.496706 4.8611842,31.380871 4.1417473,31.268778 3.4223466,30.882763 3.8108622,26.723549 3.2209196,26.424683 c 0.088464,0.477026 0.1173746,1.026425 0.05756,1.656193 -0.079478,0.836823 -0.2701882,1.419851 -0.5611094,1.768287 C 2.424929,30.199196 2.0673481,30.260923 1.638236,30.035976 1.5022894,29.964686 1.3744237,29.877776 1.2497929,29.77445 1.1251632,29.671123 0.9942494,29.551455 0.87567591,29.41334 l 0.0863556,-0.933976 c 0.11572999,0.167564 0.23889989,0.305325 0.34529969,0.41096 0.1061549,0.107911 0.2109271,0.193664 0.3165447,0.249057 0.2270807,0.119026 0.4137366,0.100853 0.5611254,-0.04981 0.1471619,-0.148398 0.240639,-0.432681 0.3021622,-0.846785 -0.097701,0.06511 -0.1953728,0.09863 -0.3021622,0.09962 -0.1070704,0.004 -0.225158,-0.02432 -0.3453218,-0.08719 C 1.5373306,28.096734 1.3194859,27.820863 1.1634615,27.420903 1.0060305,27.020221 0.94413687,26.566782 0.99079055,26.076006 1.0423266,25.533223 1.1839916,25.1496 1.4224268,24.930357 1.5415575,24.821847 1.6785678,24.764585 1.825301,24.756016 z m 0.2157684,0.909032 c -0.053624,0.01033 -0.1038355,0.04343 -0.1438325,0.09962 -0.081526,0.113964 -0.1301257,0.313925 -0.1582703,0.610202 -0.028143,0.296276 -0.024378,0.539952 0.028554,0.72226 0.051827,0.183862 0.1530886,0.315444 0.2877806,0.386014 0.1333084,0.06994 0.2349753,0.03945 0.3165226,-0.07471 0.07999,-0.112376 0.1301277,-0.313892 0.1582492,-0.610167 0.028123,-0.296274 0.023032,-0.538396 -0.028554,-0.722258 -0.053364,-0.182308 -0.1400193,-0.303688 -0.2733468,-0.37358 -0.06735,-0.03547 -0.1333798,-0.04782 -0.1870837,-0.03746 z m 22.8482867,1.843001 2.04312,0 0,1.31999 3.726532,0 0,1.606427 -3.366813,4.333548 -2.402839,0 0,-4.582607 -1.19419,0 0,-1.357368 1.19419,0 z m 7.078951,0 5.855973,0 0,1.295088 -1.89923,0 0,4.694702 1.95675,-0.348679 0,1.27018 -1.95675,0.348672 -2.057533,0 0,-5.964877 -1.89921,0 z m -5.035831,2.677358 0,3.050904 2.37404,-3.050904 z m -14.385663,5.65593 c 0.730094,0.01766 1.055288,0.634041 0.934397,1.320283 -0.04215,0.239265 -0.28933,0.470525 -0.28933,0.470525 0.09766,0.01914 0.188074,0.03347 0.287759,0.06224 0.794552,0.231962 1.525602,0.744814 2.186993,1.519234 0.728974,0.853639 1.022964,1.660221 0.877653,2.440737 -0.150568,0.779202 -0.735105,1.456633 -1.740942,2.02982 -1.030909,0.587447 -2.068343,0.783423 -3.122219,0.572823 C 10.622204,44.045046 9.6898404,43.45453 8.8756925,42.501147 8.6176831,42.199011 8.3834719,41.902057 8.185071,41.592116 7.986671,41.282175 7.8159117,40.962742 7.6671023,40.633231 l 1.151055,-0.659971 c 0.1126036,0.350112 0.250902,0.66667 0.402854,0.946407 0.1491087,0.281331 0.3175518,0.537399 0.5179667,0.772071 0.430872,0.504526 0.902038,0.817218 1.410022,0.946405 0.505179,0.130783 1.033188,0.07719 1.59705,-0.174334 -0.301825,-0.115804 -0.574727,-0.273009 -0.834495,-0.460772 -0.262554,-0.186174 -0.505813,-0.417936 -0.733757,-0.684885 -0.573695,-0.671769 -0.857195,-1.319191 -0.834529,-1.942624 0.0202,-0.626382 0.330603,-1.112457 0.935224,-1.456992 0.16719,-0.09524 0.342759,-0.167084 0.51795,-0.224149 0,0 -0.392585,-0.419624 -0.310188,-0.892715 0.106173,-0.609603 0.420479,-0.975823 1.060801,-0.960335 z m 36.644041,2.139485 1.568276,1.046031 2.503538,5.080715 -1.251749,1.606384 -4.517859,-2.988657 -0.618705,0.796974 -1.338085,-0.884126 0.633083,-0.809448 -1.309319,-0.859219 1.079118,-1.3698 1.294902,0.871694 z m -35.639295,1.257704 c -0.243748,0.01395 -0.503198,0.10552 -0.776956,0.261528 -0.364972,0.207969 -0.565354,0.432084 -0.618667,0.684883 -0.05866,0.251485 0.03222,0.535126 0.287747,0.834352 0.253019,0.296276 0.537231,0.465751 0.848892,0.510542 0.30635,0.04347 0.642185,-0.04104 1.007158,-0.249057 0.364971,-0.208013 0.574462,-0.433433 0.633085,-0.684878 0.05336,-0.2528 -0.03499,-0.538075 -0.287745,-0.834352 -0.255542,-0.299184 -0.542539,-0.467066 -0.84889,-0.510547 -0.07796,-0.01117 -0.163358,-0.01713 -0.244624,-0.01233 z m 36.257951,0.535492 -1.237352,1.581474 2.992706,1.992442 z M 2.7175945,49.748639 31.220366,63.745517 c 0.369057,0.193581 0.455292,0.123046 0.402862,-0.211693 L 31.01892,53.721079 c -0.01647,-0.316678 -0.06606,-0.445628 -0.445985,-0.49811 z m 58.8050175,-0.08778 -28.805888,3.574359 c -0.381778,0.04869 -0.312852,0.210919 -0.316547,0.448297 l 0.618706,9.987115 c 0.03183,0.303028 0.02159,0.411672 0.446005,0.224146 z m -17.986042,4.421146 2.115064,2.029801 1.654601,-0.846778 0.460412,0.448292 -4.345207,2.229031 -0.704982,0.361135 -4.345207,2.229053 -0.460423,-0.435862 1.654621,-0.84678 -1.683406,-1.593948 -1.553888,0.983767 -0.460442,-0.435842 1.553958,-0.971313 1.769692,-0.90906 2.129441,2.029812 0.935222,-0.485669 0.705001,-0.361132 0.935243,-0.485647 -1.669019,-1.593947 -1.568326,0.983766 -0.445974,-0.435864 1.553888,-0.983744 z m -19.021067,0.298868 c 0.559855,0.02201 1.065373,0.189474 1.539549,0.498097 0.526458,0.342673 0.749371,0.712246 0.661879,1.120753 -0.08749,0.408507 -0.47831,0.816969 -1.165467,1.220386 -0.408713,0.239945 -0.831037,0.403853 -1.251749,0.510549 0,0 0.111828,0.206436 0.106377,0.401904 -0.01192,0.42759 -0.297464,0.579428 -0.725102,0.56941 -0.388698,-0.0091 -0.729067,-0.183872 -0.72055,-0.572584 0.003,-0.13909 0.101888,-0.274195 0.101888,-0.274195 -0.612776,-0.03478 -1.166259,-0.208258 -1.669004,-0.535478 C 21.204011,57.19651 21.032277,57.076719 20.889715,56.946132 20.7453,56.816665 20.622352,56.677913 20.515633,56.535193 l 0.791373,-0.460744 c 0.08379,0.156157 0.17828,0.287709 0.287745,0.410939 0.111335,0.122104 0.240622,0.239991 0.38846,0.33623 0.310088,0.201835 0.652733,0.305115 1.00716,0.311304 0.356317,0.005 0.718408,-0.09569 1.107911,-0.286402 -0.218068,-0.02373 -0.417794,-0.06219 -0.604324,-0.124535 -0.186529,-0.06235 -0.355715,-0.143431 -0.517928,-0.249048 -0.412919,-0.268724 -0.618351,-0.569642 -0.618702,-0.884157 0.0045,-0.314424 0.216911,-0.590025 0.633043,-0.834328 0.46002,-0.270052 0.967109,-0.394152 1.525132,-0.373579 z m 0.244624,0.747169 c -0.21794,0.01399 -0.442517,0.09092 -0.690622,0.236597 -0.250062,0.146801 -0.397621,0.289589 -0.431634,0.423389 -0.03224,0.132699 0.04807,0.255057 0.23019,0.373585 0.182115,0.118529 0.373854,0.174891 0.589906,0.161888 0.217902,-0.01421 0.454989,-0.102246 0.705017,-0.249048 0.248142,-0.145678 0.383225,-0.277137 0.417255,-0.410938 0.03403,-0.1338 -0.0336,-0.267508 -0.215807,-0.386059 -0.182203,-0.118551 -0.386366,-0.16354 -0.604305,-0.149414 z"
       id="path8-7-6-8"
       sodipodi:nodetypes="cccccccccccccccccccccccccsccccccsccccccccsccccccccscccscccsccccsccscccccccccccccsccccccccccccccccccccccssccccccccccccccccccccccccccccccccccccccccccccccccccccccccccccccccccccccccccccsccscccccccccccccccccccccccccccccsccscccccccccccccccscccsccccccccccccccccccccccccccccccccssccccccsscccscccccccsscccccccccccccccccsccccccccccccccccccccccccccccccccccccccccccccccsscsssccccccccccccccccccccssc" />
    <path
       style="fill:#0066ff;fill-opacity:1;stroke:url(#linearGradient5485);stroke-width:0.2;stroke-linecap:butt;stroke-linejoin:round;stroke-miterlimit:4;stroke-opacity:1;stroke-dasharray:none;stroke-dashoffset:0;marker-start:none"
       d="m 9.0413234,63.972245 c -3.5580426,-0.768811 -7.533455,-2.96563 -8.80045625,-8.26069 -0.37048912,-1.548351 -0.3185227,-4.92044 -0.21166536,-9.747048 L 0.13076429,41.37706 4.7446155,32.790663 C 7.0098723,28.575011 9.3623407,21.016666 9.3934049,20.871722 9.432804,20.687889 9.2028779,21.032939 8.9935412,20.938073 8.1611308,20.560844 1.0083313,17.79156 0.97144456,17.832231 0.94790434,17.858186 0.59142931,23.24424 0.43759549,29.740923 L 0.08717254,44.539925 -0.02859339,25.282118 C -0.11585573,10.76592 -0.21587891,9.371016 0.51884124,7.1819037 1.7910748,3.3912601 4.390661,1.2601062 8.2797211,0.18233549 9.3024221,-0.1010844 9.0382353,0.05257493 20.032269,0.00893863 L 31.11339,-0.03504357 29.588471,1.5898063 c -0.834146,0.888809 -3.505426,3.9295165 -6.227758,6.7528846 -2.722333,2.8233691 -6.694607,6.5293361 -8.44917,8.3435121 -1.754564,1.814176 -3.190115,3.359008 -3.190115,3.43296 0,0.145365 38.08107,0.198182 38.62286,0.05356 0.159452,-0.04257 0.289541,-0.113959 0.289082,-0.158665 -4.57e-4,-0.0447 -4.249897,-4.556964 -9.443198,-10.0272418 L 31.747803,0.04086811 42.511716,0.00335074 c 6.904183,-0.02406385 11.456547,-0.0801653 12.380941,0.06021896 2.153399,0.32702837 4.199856,1.1968321 6.04576,3.0391014 1.198601,1.19624 1.988788,2.5408245 2.563492,4.0299116 L 64.04923,9.5478745 64.02928,31.574487 c -0.02289,25.268772 0.220025,23.659419 -1.049084,26.522333 -1.022528,2.30667 -3.583449,4.639529 -6.588295,5.459207 -2.049034,0.558947 1.006572,0.460795 -24.274485,0.449598 -19.12409,-0.0085 -22.3927903,0.11427 -23.0760926,-0.03338 z M 47.493842,56.798616 C 55.279474,52.899733 61.562871,49.69436 61.456944,49.67556 61.195513,49.62918 32.51992,53.1395 32.431188,53.227876 c -0.09603,0.09564 0.0075,0.734393 0.308816,5.774439 0.374261,4.764539 0.194814,4.959398 0.422384,4.885179 0.0919,-0.02997 6.545821,-3.189995 14.331454,-7.088878 z m -15.906475,6.253781 c -0.137391,-2.692473 -0.551482,-9.140758 -0.606642,-9.4691 -0.07535,-0.192139 -0.211861,-0.287839 -0.515493,-0.4176 C 29.028299,52.939591 3.0021099,49.640061 2.8433153,49.670518 2.5999285,49.717206 31.1802,63.768459 31.43115,63.725494 c 0.141751,-0.02427 0.18075,-0.192309 0.156217,-0.673097 z M 30.211438,51.619775 c 0,-0.297782 -19.780614,-29.310974 -19.953796,-29.267205 -0.138234,0.03493 -9.86484064,24.760896 -9.96436596,25.330364 -0.0531218,0.303954 -0.0191304,0.435214 0.12718228,0.491133 0.24925173,0.09525 29.33258068,3.763146 29.59770468,3.732754 0.106302,-0.0122 0.193275,-0.141358 0.193275,-0.287046 z m 17.941433,-1.450991 c 8.362382,-0.991045 15.30354,-1.845763 15.462993,-1.880281 0.194387,-0.04209 0.290507,-0.157098 0.291713,-0.349069 0.002,-0.32353 -11.583937,-25.889126 -11.732593,-25.889126 -0.05271,0 -0.124458,0.07425 -0.159416,0.164963 -0.03495,0.09072 -4.368548,6.717623 -9.630206,14.726431 -5.261658,8.00881 -9.594719,14.662536 -9.629025,14.786059 -0.0343,0.123522 -0.01213,0.225195 0.0493,0.22594 0.06142,7.7e-4 6.984863,-0.793873 15.347234,-1.784917 z M 41.389197,36.311277 c 5.297354,-8.06247 9.631556,-14.750888 9.631556,-14.86315 0,-0.185983 -1.541781,-0.06597 -19.623719,-0.0089 -10.914579,0.03447 -20.098737,-0.03698 -20.139161,0.0033 -0.05838,0.05814 18.736243,27.584804 19.935001,29.201153 0.172903,0.233132 0.333344,0.401993 0.415462,0.375244 0.08213,-0.02676 4.483506,-6.645203 9.780861,-14.707672 z M 63.850888,31.803763 C 63.66741,24.992385 63.531175,19.298266 63.489215,18.334132 c -0.05037,-1.157309 0.01916,-1.234656 -0.244761,-1.131083 -8.320754,3.265383 -9.852274,3.695544 -9.948089,3.845098 -0.07091,0.110682 1.933301,4.226222 5.45978,12.074401 4.764396,10.603162 5.296642,11.625576 5.254046,11.360039 0.0235,-0.275226 0.02418,-5.867448 -0.159303,-12.678824 z M 18.555006,11.274321 c 4.637821,-4.7974442 8.456546,-8.7947757 8.486059,-8.8829588 0.03682,-0.1100205 -0.04361,0.078891 -0.256313,0.215448 C 26.614267,2.716263 21.173616,5.7961195 14.370323,9.6669961 7.56703,13.537874 1.711375,16.723769 1.6818469,16.746764 c -0.029528,0.023 -0.021124,0.07426 0.018675,0.113886 0.1714404,0.170755 7.7971305,3.115075 8.0940554,3.12516 0.2711127,0.0091 1.7911387,-1.502326 8.7604287,-8.711489 z m 38.972684,6.817002 c 3.216176,-1.274989 4.767459,-1.95071 4.767459,-2.076649 0,-0.163827 -4.24307,-2.395472 -25.380061,-13.3811554 -1.016039,-0.5280728 -1.872807,-0.9274053 -1.846637,-0.8492112 0.02618,0.078194 4.166726,4.2496732 8.877145,9.2159386 5.831659,6.148404 8.381461,8.984687 8.556935,8.98321 0.141734,-0.0012 2.403056,-0.852654 5.025159,-1.892133 z"
       inkscape:connector-curvature="0"
       sodipodi:nodetypes="csscssssscsssscssssccscsssscsssscssccsssccscsccscsccscccscscscccsscssccssssscsccsssscccsss" />
  </g>
  <g
     inkscape:groupmode="layer"
     id="layer2"
     inkscape:label="Layer" />
</svg>
